<svg xmlns="http://www.w3.org/2000/svg" width="160" height="160" viewBox="0 0 160 160">
    <g fill="none" fill-rule="nonzero">
        <circle cx="80" cy="80" r="80" fill="#FB5D00"/>
        <path fill="#E73B00" d="M160 80a80.92 80.92 0 0 0-.1-3.896c-.198-.203-.39-.42-.594-.595-.325-.373-44.455-44.503-44.794-44.796-1.343-1.537-2.821-2.444-4.374-2.444-3.114 0-5.924 3.629-7.941 8.73A47.764 47.764 0 0 0 79.704 31.4a47.798 47.798 0 0 0-17.55 3.334c-.197-.38-1.455-1.664-1.908-1.848a1.8 1.8 0 0 0-3.473.674v1.912c-.196-.256-2.277-2.402-2.73-2.586a1.798 1.798 0 0 0-1.669-1.131c-.997 0-1.804.808-1.804 1.804v1.912c-.196-.256-2.277-2.403-2.73-2.585a1.798 1.798 0 0 0-1.669-1.132c-.997 0-1.804.808-1.804 1.805v1.912c-.196-.256-2.277-2.403-2.73-2.586a1.8 1.8 0 0 0-3.474.674v21.657l-.003.101.005.066a47.734 47.734 0 0 0-6.438 23.997c0 12.616 4.876 24.088 12.838 32.653-.4 3.084-.675 5.41-.675 6.059v7.91l-.032.32c0 1.747.843 3.285 2.13 4.274.288.374 28.492 28.579 28.867 28.867l.382.382c1.574.094 3.161.155 4.763.155 44.183 0 80-35.817 80-80z"/>
        <circle cx="79.703" cy="79.381" r="47.981" fill="#FFF"/>
        <circle cx="79.703" cy="79.381" r="38.448" fill="#D6EAF0"/>
        <circle cx="79.703" cy="79.381" r="30.432" fill="#FFF"/>
        <path fill="#ADE" d="M99.024 54.08c0 8.738 9.501 11.749 9.501 14.08v18.589c0 2.286-3.77 27.697-3.77 30.105v7.91l-.032.32a5.408 5.408 0 1 0 10.817 0l-.02-.177v-8.1c-.02-2.388-3.77-27.788-3.77-30.06V68.16c0-2.331 9.502-5.342 9.502-14.08 0-11.737-4.976-25.811-11.112-25.811-6.14 0-11.116 14.075-11.116 25.811z"/>
        <path fill="#38B5C7" d="M110.138 130.493a5.406 5.406 0 0 0 5.4-5.408l-.018-.178v-8.1c-.02-2.388-3.77-27.788-3.77-30.06V68.16c0-2.331 9.501-5.342 9.501-14.08 0-11.737-4.976-25.811-11.112-25.811v102.224h-.001z"/>
        <path fill="#ADE" d="M47.973 33.56a1.805 1.805 0 1 0-3.61 0v21.657H41.77V33.56a1.805 1.805 0 1 0-3.61 0v21.657l-.003.101c0 8.738 9.501 11.75 9.501 14.08v18.59c0 2.285-3.77 27.697-3.77 30.105v7.91l-.031.32a5.408 5.408 0 1 0 10.816 0l-.018-.177v-8.1c-.02-2.387-3.77-27.787-3.77-30.059V69.4c0-2.332 9.502-5.343 9.502-14.08l-.004-.101h.004V33.56a1.805 1.805 0 1 0-3.61 0v21.658h-2.594V33.56a1.805 1.805 0 1 0-3.609 0v21.658H47.98V33.56h-.007z"/>
        <path fill="#38B5C7" d="M52.373 31.755c-.997 0-1.805.808-1.805 1.805v21.657h-1.297v76.512a5.407 5.407 0 0 0 5.4-5.408l-.018-8.276c-.02-2.388-3.77-27.788-3.77-30.06V69.399c0-2.33 9.501-5.342 9.501-14.08V33.56a1.805 1.805 0 1 0-3.609 0v21.657h-2.594V33.56a1.81 1.81 0 0 0-1.808-1.805z"/>
    </g>
</svg>
