<svg xmlns="http://www.w3.org/2000/svg" width="116" height="28" viewBox="0 0 116 28">
    <path fill="#000" fill-rule="evenodd" d="M19.645 17.42c0 1.406-.252 2.716-.756 3.929a9.828 9.828 0 0 1-2.057 3.146 9.621 9.621 0 0 1-3.05 2.092 9.265 9.265 0 0 1-3.753.765 9.222 9.222 0 0 1-3.735-.765 9.726 9.726 0 0 1-3.059-2.092A9.753 9.753 0 0 1 1.17 21.35c-.504-1.213-.756-2.523-.756-3.93 0-1.429.252-2.753.756-3.972a9.73 9.73 0 0 1 2.065-3.155 9.605 9.605 0 0 1 3.059-2.083 9.314 9.314 0 0 1 3.735-.756c1.336 0 2.587.237 3.753.712a9.068 9.068 0 0 1 3.05 2.022c.867.873 1.553 1.921 2.057 3.146.504 1.225.756 2.587.756 4.087zm-4.834 0c0-.774-.126-1.474-.378-2.1a4.989 4.989 0 0 0-1.029-1.618 4.445 4.445 0 0 0-1.52-1.037 4.798 4.798 0 0 0-1.855-.36c-.656 0-1.274.12-1.854.36-.58.24-1.084.586-1.512 1.037-.428.451-.765.99-1.01 1.617-.247.627-.37 1.327-.37 2.1 0 .727.123 1.401.37 2.022.245.622.582 1.16 1.01 1.618.428.457.932.817 1.512 1.08.58.264 1.198.396 1.854.396.657 0 1.275-.123 1.855-.369a4.616 4.616 0 0 0 1.52-1.037 4.867 4.867 0 0 0 1.029-1.617c.252-.633.378-1.33.378-2.092zm26.332 0c0 1.476-.252 2.824-.756 4.043-.504 1.219-1.19 2.265-2.057 3.138a9.18 9.18 0 0 1-3.05 2.03 9.753 9.753 0 0 1-3.753.72 9.506 9.506 0 0 1-6.794-2.794 9.651 9.651 0 0 1-2.065-3.138c-.504-1.213-.756-2.546-.756-4V.687h4.817v8.789c.257-.329.57-.621.94-.88a5.55 5.55 0 0 1 1.195-.632c.428-.164.87-.29 1.327-.378a7.067 7.067 0 0 1 1.336-.132c1.336 0 2.587.25 3.753.747a9.32 9.32 0 0 1 3.05 2.083 9.933 9.933 0 0 1 2.057 3.155c.504 1.213.756 2.54.756 3.982zm-4.834 0c0-.727-.126-1.403-.378-2.03a5.093 5.093 0 0 0-1.029-1.626 4.714 4.714 0 0 0-1.52-1.073 4.515 4.515 0 0 0-1.855-.386c-.656 0-1.274.143-1.854.43a5.113 5.113 0 0 0-1.52 1.143 5.342 5.342 0 0 0-1.02 1.635 5.09 5.09 0 0 0-.37 1.907c0 .726.124 1.4.37 2.021.246.622.586 1.16 1.02 1.618.433.457.94.817 1.52 1.08.58.264 1.198.396 1.854.396.657 0 1.275-.132 1.855-.395a4.83 4.83 0 0 0 1.52-1.081 5.117 5.117 0 0 0 1.029-1.618 5.327 5.327 0 0 0 .378-2.021zm14.976 4.975c.188.058.375.096.563.114.187.017.375.026.562.026.469 0 .92-.064 1.354-.193.433-.13.84-.314 1.221-.554a4.619 4.619 0 0 0 1.749-2.03l3.516 3.533a9.464 9.464 0 0 1-1.538 1.705 9.705 9.705 0 0 1-1.88 1.283 9.4 9.4 0 0 1-2.128.8 9.639 9.639 0 0 1-2.294.273 9.506 9.506 0 0 1-6.794-2.795 9.651 9.651 0 0 1-2.065-3.138c-.504-1.213-.756-2.546-.756-4 0-1.487.252-2.847.756-4.077s1.192-2.28 2.065-3.147a9.344 9.344 0 0 1 3.059-2.021 9.707 9.707 0 0 1 3.735-.72c.785 0 1.553.093 2.303.28a9.67 9.67 0 0 1 5.572 3.815l-9 10.846zm2.461-9.897a2.764 2.764 0 0 0-.66-.158 6.297 6.297 0 0 0-.676-.035c-.656 0-1.274.12-1.854.36-.58.24-1.084.583-1.512 1.028a4.847 4.847 0 0 0-1.01 1.609c-.247.627-.37 1.333-.37 2.118a7.674 7.674 0 0 0 .114 1.274c.041.229.091.449.15.66.058.21.135.398.228.562l5.59-7.418zm27 14.502h-1.16l-1.863-2.584c-.457.41-.94.794-1.45 1.151-.51.358-1.046.668-1.609.932a9.868 9.868 0 0 1-1.731.624 7.199 7.199 0 0 1-1.802.229 9.487 9.487 0 0 1-6.794-2.821 9.753 9.753 0 0 1-2.066-3.147c-.503-1.213-.755-2.534-.755-3.964 0-1.418.252-2.736.755-3.955a9.832 9.832 0 0 1 2.066-3.164 9.535 9.535 0 0 1 3.059-2.092 9.314 9.314 0 0 1 3.735-.756c.422 0 .858.035 1.31.106.45.07.89.184 1.318.342.428.159.829.367 1.204.624.375.258.691.575.95.95V.685h4.833V27zm-4.834-9.58c0-.656-.126-1.292-.378-1.907a5.48 5.48 0 0 0-1.028-1.635 5.113 5.113 0 0 0-1.52-1.143 4.125 4.125 0 0 0-1.855-.43c-.656 0-1.275.117-1.855.351a4.368 4.368 0 0 0-1.511 1.011c-.428.44-.765.976-1.011 1.608-.246.633-.37 1.348-.37 2.145 0 .691.124 1.348.37 1.969a5.292 5.292 0 0 0 1.01 1.634c.428.47.932.838 1.512 1.108.58.27 1.199.404 1.855.404.656 0 1.274-.143 1.854-.43a5.113 5.113 0 0 0 1.52-1.143 5.48 5.48 0 0 0 1.03-1.635 4.987 4.987 0 0 0 .377-1.907zm15.979 4.975c.187.058.375.096.562.114.188.017.375.026.563.026.468 0 .92-.064 1.353-.193.434-.13.841-.314 1.222-.554a4.619 4.619 0 0 0 1.749-2.03l3.515 3.533a9.464 9.464 0 0 1-1.538 1.705 9.705 9.705 0 0 1-1.88 1.283 9.4 9.4 0 0 1-2.127.8 9.639 9.639 0 0 1-2.294.273 9.506 9.506 0 0 1-6.794-2.795 9.651 9.651 0 0 1-2.066-3.138c-.504-1.213-.756-2.546-.756-4 0-1.487.252-2.847.756-4.077s1.193-2.28 2.066-3.147a9.344 9.344 0 0 1 3.058-2.021 9.707 9.707 0 0 1 3.736-.72c.785 0 1.552.093 2.302.28a9.67 9.67 0 0 1 5.573 3.815l-9 10.846zm2.46-9.897a2.764 2.764 0 0 0-.659-.158 6.297 6.297 0 0 0-.676-.035c-.657 0-1.275.12-1.855.36-.58.24-1.084.583-1.512 1.028a4.847 4.847 0 0 0-1.01 1.609c-.246.627-.37 1.333-.37 2.118a7.675 7.675 0 0 0 .115 1.274c.04.229.09.449.15.66.058.21.134.398.228.562l5.59-7.418zM108.099 27h-4.8V8.174h1.161l1.582 2.232a8.38 8.38 0 0 1 2.637-1.626 8.405 8.405 0 0 1 3.058-.571h4.237v4.781h-4.237a3.631 3.631 0 0 0-2.584 1.055 3.631 3.631 0 0 0-1.055 2.584V27z"/>
</svg>
